<svg xmlns="http://www.w3.org/2000/svg" xmlns:xlink="http://www.w3.org/1999/xlink" width="500" zoomAndPan="magnify" viewBox="0 0 375 374.999991" height="500" preserveAspectRatio="xMidYMid meet" version="1.0"><defs><clipPath id="ee7f58e72f"><path d="M 67.480469 52.425781 L 307.480469 52.425781 L 307.480469 221.175781 L 67.480469 221.175781 Z M 67.480469 52.425781 " clip-rule="nonzero"/></clipPath><clipPath id="50bc797b0b"><path d="M 249 84.457031 L 265.390625 84.457031 L 265.390625 156.457031 L 249 156.457031 Z M 249 84.457031 " clip-rule="nonzero"/></clipPath><clipPath id="39028f9e5b"><path d="M 231 105 L 248 105 L 248 156.457031 L 231 156.457031 Z M 231 105 " clip-rule="nonzero"/></clipPath><clipPath id="bbcdae91af"><path d="M 213 121 L 230 121 L 230 156.457031 L 213 156.457031 Z M 213 121 " clip-rule="nonzero"/></clipPath><clipPath id="1b1890a449"><path d="M 195 135 L 212 135 L 212 156.457031 L 195 156.457031 Z M 195 135 " clip-rule="nonzero"/></clipPath><clipPath id="155aaddb52"><path d="M 194.140625 84.457031 L 231 84.457031 L 231 119 L 194.140625 119 Z M 194.140625 84.457031 " clip-rule="nonzero"/></clipPath><clipPath id="73dd2d09eb"><path d="M 107.546875 130 L 193.796875 130 L 193.796875 163.511719 L 107.546875 163.511719 Z M 107.546875 130 " clip-rule="nonzero"/></clipPath><clipPath id="3abf560d83"><path d="M 132 77.261719 L 169 77.261719 L 169 113 L 132 113 Z M 132 77.261719 " clip-rule="nonzero"/></clipPath></defs><g clip-path="url(#ee7f58e72f)"><path fill="#000000" d="M 102.402344 69.015625 L 272.550781 69.015625 L 272.550781 176.554688 L 102.402344 176.554688 Z M 96.796875 182.160156 L 278.152344 182.160156 L 278.152344 63.410156 L 96.796875 63.410156 Z M 298.699219 215.535156 C 296.367188 215.558594 229.902344 215.574219 171.710938 215.574219 C 114.25 215.574219 78.566406 215.558594 76.253906 215.535156 C 74.929688 215.523438 74.160156 213.132812 73.714844 212.207031 L 300.515625 212.207031 C 299.933594 213.203125 299.273438 215.53125 298.699219 215.535156 Z M 89.121094 193.199219 L 285.828125 193.199219 L 298.238281 206.605469 L 76.710938 206.605469 Z M 90.699219 61.367188 C 90.699219 59.527344 92.203125 58.03125 94.050781 58.03125 L 280.90625 58.03125 C 282.75 58.03125 284.25 59.527344 284.25 61.367188 L 284.25 187.539062 L 90.699219 187.539062 Z M 306.574219 207.359375 L 289.855469 189.300781 L 289.855469 61.367188 C 289.855469 56.4375 285.839844 52.425781 280.910156 52.425781 L 94.050781 52.425781 C 89.113281 52.425781 85.097656 56.4375 85.097656 61.367188 L 85.097656 189.300781 L 68.242188 207.5 C 67.773438 208.011719 67.5 208.71875 67.5 209.410156 C 67.503906 212.886719 69.332031 221.070312 76.195312 221.136719 C 78.527344 221.164062 114.234375 221.175781 171.710938 221.175781 C 229.914062 221.175781 296.402344 221.160156 298.753906 221.140625 C 304.550781 221.085938 306.871094 211.972656 307.3125 210.304688 C 307.410156 210.023438 307.460938 209.71875 307.460938 209.40625 C 307.460938 208.597656 307.121094 207.867188 306.574219 207.359375 " fill-opacity="1" fill-rule="nonzero"/></g><g clip-path="url(#50bc797b0b)"><path fill="#000000" d="M 265.113281 94.109375 L 258.34375 85.042969 C 258.234375 84.910156 258.097656 84.804688 257.941406 84.730469 C 257.78125 84.65625 257.613281 84.617188 257.4375 84.617188 C 257.261719 84.617188 257.09375 84.65625 256.9375 84.730469 C 256.777344 84.804688 256.644531 84.910156 256.53125 85.042969 C 256.53125 85.042969 249.769531 94.101562 249.761719 94.109375 C 249.496094 94.480469 249.464844 94.867188 249.671875 95.277344 C 249.878906 95.683594 250.210938 95.890625 250.667969 95.898438 L 252.925781 95.898438 L 252.925781 155.253906 C 252.925781 155.402344 252.953125 155.546875 253.011719 155.683594 C 253.066406 155.820312 253.148438 155.941406 253.253906 156.046875 C 253.363281 156.152344 253.484375 156.234375 253.621094 156.289062 C 253.761719 156.347656 253.902344 156.375 254.054688 156.375 L 260.804688 156.375 C 260.953125 156.375 261.097656 156.347656 261.238281 156.289062 C 261.375 156.234375 261.496094 156.152344 261.601562 156.046875 C 261.707031 155.941406 261.789062 155.820312 261.847656 155.683594 C 261.90625 155.546875 261.933594 155.402344 261.933594 155.253906 L 261.933594 95.898438 L 264.207031 95.898438 C 264.664062 95.886719 264.996094 95.679688 265.199219 95.273438 C 265.40625 94.867188 265.375 94.480469 265.113281 94.109375 Z M 265.113281 94.109375 " fill-opacity="1" fill-rule="nonzero"/></g><g clip-path="url(#39028f9e5b)"><path fill="#000000" d="M 240.289062 106.351562 C 240.179688 106.21875 240.042969 106.113281 239.886719 106.039062 C 239.726562 105.964844 239.5625 105.929688 239.386719 105.929688 C 239.210938 105.929688 239.042969 105.964844 238.886719 106.039062 C 238.726562 106.113281 238.59375 106.21875 238.484375 106.351562 C 238.484375 106.351562 231.722656 115.335938 231.710938 115.347656 C 231.445312 115.71875 231.414062 116.109375 231.621094 116.519531 C 231.828125 116.929688 232.164062 117.136719 232.625 117.140625 L 234.871094 117.125 L 234.871094 155.253906 C 234.871094 155.402344 234.902344 155.546875 234.957031 155.683594 C 235.015625 155.820312 235.097656 155.941406 235.203125 156.046875 C 235.308594 156.152344 235.429688 156.234375 235.570312 156.289062 C 235.707031 156.347656 235.851562 156.375 236 156.375 L 242.769531 156.375 C 242.921875 156.375 243.0625 156.347656 243.203125 156.289062 C 243.339844 156.234375 243.460938 156.152344 243.570312 156.046875 C 243.675781 155.941406 243.757812 155.820312 243.8125 155.683594 C 243.871094 155.546875 243.898438 155.402344 243.898438 155.253906 L 243.898438 117.125 C 243.898438 117.125 246.144531 117.140625 246.148438 117.140625 C 246.609375 117.136719 246.941406 116.929688 247.152344 116.519531 C 247.359375 116.109375 247.328125 115.71875 247.058594 115.347656 Z M 240.289062 106.351562 " fill-opacity="1" fill-rule="nonzero"/></g><g clip-path="url(#bbcdae91af)"><path fill="#000000" d="M 222.238281 122.054688 C 222.125 121.921875 221.992188 121.816406 221.832031 121.742188 C 221.675781 121.667969 221.507812 121.628906 221.332031 121.628906 C 221.160156 121.628906 220.992188 121.667969 220.835938 121.742188 C 220.675781 121.816406 220.542969 121.921875 220.429688 122.054688 L 213.660156 131.050781 C 213.390625 131.421875 213.363281 131.8125 213.570312 132.222656 C 213.777344 132.632812 214.113281 132.839844 214.570312 132.84375 L 216.820312 132.828125 L 216.820312 155.253906 C 216.820312 155.402344 216.847656 155.546875 216.90625 155.683594 C 216.964844 155.820312 217.046875 155.941406 217.152344 156.046875 C 217.257812 156.152344 217.378906 156.234375 217.515625 156.289062 C 217.65625 156.347656 217.800781 156.375 217.949219 156.375 L 224.71875 156.375 C 224.867188 156.375 225.011719 156.347656 225.148438 156.289062 C 225.289062 156.234375 225.410156 156.152344 225.515625 156.046875 C 225.621094 155.941406 225.703125 155.820312 225.761719 155.683594 C 225.816406 155.546875 225.847656 155.402344 225.847656 155.253906 L 225.847656 132.828125 L 228.09375 132.84375 C 228.554688 132.839844 228.890625 132.632812 229.097656 132.222656 C 229.308594 131.8125 229.277344 131.421875 229.007812 131.050781 Z M 222.238281 122.054688 " fill-opacity="1" fill-rule="nonzero"/></g><g clip-path="url(#1b1890a449)"><path fill="#000000" d="M 204.183594 135.515625 C 204.074219 135.378906 203.9375 135.277344 203.78125 135.203125 C 203.621094 135.128906 203.457031 135.089844 203.28125 135.089844 C 203.105469 135.089844 202.941406 135.128906 202.78125 135.203125 C 202.625 135.277344 202.488281 135.378906 202.378906 135.515625 C 202.378906 135.515625 195.617188 144.496094 195.609375 144.511719 C 195.335938 144.882812 195.308594 145.273438 195.515625 145.683594 C 195.722656 146.09375 196.058594 146.300781 196.519531 146.304688 L 198.769531 146.289062 L 198.769531 155.253906 C 198.769531 155.402344 198.796875 155.546875 198.855469 155.683594 C 198.910156 155.820312 198.992188 155.941406 199.097656 156.046875 C 199.203125 156.152344 199.328125 156.234375 199.464844 156.289062 C 199.601562 156.347656 199.746094 156.375 199.898438 156.375 L 206.667969 156.375 C 206.816406 156.375 206.960938 156.347656 207.097656 156.289062 C 207.234375 156.234375 207.359375 156.152344 207.464844 156.046875 C 207.570312 155.941406 207.652344 155.820312 207.707031 155.683594 C 207.765625 155.546875 207.792969 155.402344 207.792969 155.253906 L 207.792969 146.289062 C 207.792969 146.289062 210.042969 146.304688 210.050781 146.304688 C 210.507812 146.292969 210.839844 146.082031 211.042969 145.675781 C 211.246094 145.269531 211.21875 144.882812 210.953125 144.511719 Z M 204.183594 135.515625 " fill-opacity="1" fill-rule="nonzero"/></g><path fill="#000000" d="M 202.671875 119.363281 C 202.523438 119.363281 202.378906 119.390625 202.242188 119.449219 C 202.101562 119.503906 201.980469 119.585938 201.875 119.691406 C 201.769531 119.796875 201.6875 119.917969 201.628906 120.054688 C 201.574219 120.191406 201.542969 120.335938 201.542969 120.484375 L 201.542969 121.125 C 200.636719 121.273438 199.898438 121.707031 199.324219 122.417969 C 199.144531 122.660156 199.011719 122.921875 198.914062 123.203125 C 198.820312 123.484375 198.773438 123.777344 198.773438 124.074219 C 198.769531 124.371094 198.816406 124.664062 198.90625 124.949219 C 199 125.230469 199.132812 125.496094 199.308594 125.734375 C 200.082031 126.84375 201.375 127.160156 202.519531 127.441406 C 203.578125 127.703125 204.230469 127.894531 204.390625 128.324219 C 204.488281 128.589844 204.078125 128.878906 203.753906 128.996094 C 202.953125 129.257812 202.179688 129.191406 201.4375 128.796875 C 201.304688 128.726562 201.164062 128.683594 201.015625 128.667969 C 200.867188 128.65625 200.71875 128.667969 200.574219 128.710938 C 200.433594 128.753906 200.304688 128.824219 200.1875 128.917969 C 200.070312 129.011719 199.976562 129.125 199.90625 129.257812 C 199.835938 129.386719 199.792969 129.527344 199.777344 129.675781 C 199.765625 129.824219 199.777344 129.96875 199.820312 130.109375 C 199.867188 130.253906 199.933594 130.382812 200.03125 130.496094 C 200.125 130.613281 200.238281 130.707031 200.371094 130.773438 C 200.742188 130.972656 201.136719 131.121094 201.542969 131.222656 L 201.542969 131.699219 C 201.542969 131.847656 201.574219 131.992188 201.628906 132.128906 C 201.6875 132.265625 201.769531 132.386719 201.875 132.492188 C 201.980469 132.597656 202.101562 132.679688 202.242188 132.734375 C 202.378906 132.792969 202.523438 132.820312 202.671875 132.820312 C 202.824219 132.820312 202.964844 132.792969 203.105469 132.734375 C 203.242188 132.679688 203.363281 132.597656 203.472656 132.492188 C 203.578125 132.386719 203.65625 132.265625 203.714844 132.128906 C 203.773438 131.992188 203.800781 131.847656 203.800781 131.699219 L 203.800781 131.300781 C 204.054688 131.253906 204.300781 131.1875 204.542969 131.097656 C 206.207031 130.480469 207.039062 128.992188 206.507812 127.550781 C 205.921875 125.96875 204.335938 125.578125 203.0625 125.265625 C 202.269531 125.070312 201.449219 124.867188 201.15625 124.453125 C 200.976562 124.230469 200.96875 124.003906 201.128906 123.769531 C 201.445312 123.347656 202.355469 123.148438 203.292969 123.300781 C 203.535156 123.34375 203.761719 123.421875 203.972656 123.542969 C 204.105469 123.613281 204.242188 123.660156 204.390625 123.675781 C 204.539062 123.695312 204.6875 123.683594 204.832031 123.640625 C 204.972656 123.601562 205.105469 123.535156 205.222656 123.441406 C 205.339844 123.351562 205.433594 123.238281 205.507812 123.109375 C 205.578125 122.980469 205.625 122.839844 205.640625 122.695312 C 205.660156 122.546875 205.648438 122.402344 205.609375 122.257812 C 205.566406 122.113281 205.5 121.984375 205.410156 121.867188 C 205.316406 121.75 205.203125 121.65625 205.074219 121.585938 C 204.675781 121.363281 204.25 121.207031 203.800781 121.117188 L 203.800781 120.484375 C 203.800781 120.335938 203.773438 120.191406 203.714844 120.054688 C 203.65625 119.917969 203.578125 119.796875 203.472656 119.691406 C 203.363281 119.585938 203.242188 119.503906 203.105469 119.449219 C 202.964844 119.390625 202.824219 119.363281 202.671875 119.363281 Z M 202.671875 119.363281 " fill-opacity="1" fill-rule="nonzero"/><path fill="#000000" d="M 221.289062 105.902344 C 221.140625 105.902344 220.996094 105.929688 220.859375 105.988281 C 220.71875 106.042969 220.597656 106.125 220.492188 106.230469 C 220.386719 106.335938 220.304688 106.457031 220.246094 106.59375 C 220.191406 106.730469 220.160156 106.875 220.160156 107.023438 L 220.160156 107.664062 C 219.253906 107.8125 218.515625 108.246094 217.941406 108.960938 C 217.761719 109.199219 217.625 109.460938 217.53125 109.742188 C 217.4375 110.027344 217.390625 110.316406 217.386719 110.613281 C 217.386719 110.914062 217.433594 111.203125 217.523438 111.488281 C 217.613281 111.773438 217.746094 112.035156 217.921875 112.277344 C 218.699219 113.382812 219.992188 113.703125 221.132812 113.984375 C 222.191406 114.242188 222.847656 114.433594 223.007812 114.863281 C 223.105469 115.128906 222.695312 115.417969 222.371094 115.535156 C 221.570312 115.800781 220.796875 115.734375 220.050781 115.339844 C 219.921875 115.269531 219.78125 115.226562 219.628906 115.210938 C 219.480469 115.195312 219.335938 115.210938 219.191406 115.253906 C 219.050781 115.296875 218.917969 115.363281 218.804688 115.457031 C 218.6875 115.554688 218.59375 115.664062 218.523438 115.796875 C 218.453125 115.929688 218.410156 116.066406 218.394531 116.214844 C 218.378906 116.363281 218.394531 116.507812 218.4375 116.652344 C 218.480469 116.792969 218.550781 116.921875 218.644531 117.039062 C 218.742188 117.152344 218.855469 117.246094 218.988281 117.316406 C 219.359375 117.511719 219.75 117.660156 220.160156 117.761719 L 220.160156 118.242188 C 220.160156 118.390625 220.191406 118.53125 220.246094 118.667969 C 220.304688 118.808594 220.386719 118.929688 220.492188 119.035156 C 220.597656 119.140625 220.71875 119.21875 220.859375 119.277344 C 220.996094 119.332031 221.140625 119.363281 221.289062 119.363281 C 221.4375 119.363281 221.582031 119.332031 221.722656 119.277344 C 221.859375 119.21875 221.980469 119.140625 222.085938 119.035156 C 222.191406 118.929688 222.273438 118.808594 222.332031 118.667969 C 222.390625 118.53125 222.417969 118.390625 222.417969 118.242188 L 222.417969 117.839844 C 222.667969 117.792969 222.917969 117.726562 223.15625 117.640625 C 224.824219 117.023438 225.652344 115.53125 225.125 114.089844 C 224.539062 112.511719 222.953125 112.117188 221.675781 111.804688 C 220.882812 111.609375 220.0625 111.40625 219.773438 110.992188 C 219.59375 110.773438 219.582031 110.542969 219.742188 110.308594 C 220.0625 109.886719 220.972656 109.691406 221.910156 109.84375 C 222.152344 109.882812 222.378906 109.964844 222.589844 110.082031 C 222.71875 110.15625 222.859375 110.199219 223.007812 110.21875 C 223.15625 110.234375 223.304688 110.222656 223.449219 110.183594 C 223.589844 110.140625 223.722656 110.074219 223.839844 109.984375 C 223.957031 109.890625 224.050781 109.78125 224.125 109.652344 C 224.199219 109.519531 224.242188 109.382812 224.261719 109.234375 C 224.277344 109.085938 224.265625 108.941406 224.226562 108.796875 C 224.183594 108.65625 224.117188 108.523438 224.027344 108.410156 C 223.933594 108.292969 223.820312 108.195312 223.691406 108.125 C 223.289062 107.902344 222.867188 107.746094 222.417969 107.65625 L 222.417969 107.023438 C 222.417969 106.875 222.390625 106.730469 222.332031 106.59375 C 222.273438 106.457031 222.191406 106.335938 222.085938 106.230469 C 221.980469 106.125 221.859375 106.042969 221.722656 105.988281 C 221.582031 105.929688 221.4375 105.902344 221.289062 105.902344 Z M 221.289062 105.902344 " fill-opacity="1" fill-rule="nonzero"/><g clip-path="url(#155aaddb52)"><path fill="#000000" d="M 228.921875 84.632812 L 224.410156 85.917969 C 224.265625 85.957031 224.136719 86.023438 224.019531 86.117188 C 223.902344 86.210938 223.808594 86.320312 223.734375 86.449219 C 223.660156 86.582031 223.617188 86.71875 223.601562 86.867188 C 223.582031 87.015625 223.59375 87.160156 223.636719 87.300781 C 223.675781 87.445312 223.746094 87.574219 223.835938 87.691406 C 223.929688 87.808594 224.042969 87.902344 224.171875 87.972656 C 224.300781 88.046875 224.441406 88.089844 224.589844 88.109375 C 224.738281 88.125 224.882812 88.113281 225.027344 88.074219 L 225.601562 87.910156 L 194.617188 116.292969 C 194.507812 116.394531 194.421875 116.511719 194.359375 116.648438 C 194.296875 116.78125 194.261719 116.925781 194.257812 117.074219 C 194.25 117.222656 194.273438 117.367188 194.324219 117.503906 C 194.375 117.644531 194.453125 117.769531 194.554688 117.878906 C 194.65625 117.988281 194.777344 118.070312 194.910156 118.132812 C 195.046875 118.191406 195.1875 118.226562 195.335938 118.234375 C 195.488281 118.238281 195.632812 118.21875 195.769531 118.167969 C 195.910156 118.117188 196.039062 118.042969 196.148438 117.945312 L 227.089844 89.597656 L 227.007812 89.921875 C 226.96875 90.066406 226.960938 90.210938 226.984375 90.359375 C 227.003906 90.507812 227.054688 90.644531 227.128906 90.773438 C 227.207031 90.902344 227.304688 91.011719 227.425781 91.101562 C 227.546875 91.191406 227.679688 91.253906 227.824219 91.289062 C 227.972656 91.324219 228.117188 91.332031 228.265625 91.308594 C 228.414062 91.289062 228.554688 91.238281 228.683594 91.160156 C 228.8125 91.085938 228.917969 90.984375 229.007812 90.867188 C 229.097656 90.746094 229.160156 90.613281 229.195312 90.46875 L 230.324219 85.984375 C 230.429688 85.566406 230.328125 85.207031 230.015625 84.90625 C 229.703125 84.605469 229.339844 84.515625 228.921875 84.632812 Z M 228.921875 84.632812 " fill-opacity="1" fill-rule="nonzero"/></g><path fill="#000000" d="M 238.621094 98.28125 C 239.679688 98.539062 240.335938 98.730469 240.496094 99.160156 C 240.59375 99.425781 240.179688 99.714844 239.859375 99.832031 C 239.058594 100.097656 238.285156 100.03125 237.539062 99.636719 C 237.410156 99.566406 237.269531 99.523438 237.117188 99.507812 C 236.96875 99.492188 236.824219 99.507812 236.679688 99.550781 C 236.535156 99.59375 236.40625 99.660156 236.292969 99.753906 C 236.175781 99.847656 236.082031 99.960938 236.011719 100.09375 C 235.941406 100.226562 235.898438 100.363281 235.882812 100.511719 C 235.867188 100.660156 235.882812 100.804688 235.925781 100.949219 C 235.96875 101.089844 236.039062 101.21875 236.132812 101.335938 C 236.230469 101.449219 236.34375 101.542969 236.476562 101.613281 C 236.847656 101.808594 237.238281 101.957031 237.648438 102.058594 L 237.648438 102.539062 C 237.648438 102.6875 237.679688 102.828125 237.734375 102.964844 C 237.792969 103.105469 237.875 103.226562 237.980469 103.332031 C 238.085938 103.4375 238.207031 103.515625 238.34375 103.574219 C 238.484375 103.628906 238.628906 103.660156 238.777344 103.660156 C 238.925781 103.660156 239.070312 103.628906 239.210938 103.574219 C 239.347656 103.515625 239.46875 103.4375 239.574219 103.332031 C 239.679688 103.226562 239.761719 103.105469 239.820312 102.964844 C 239.878906 102.828125 239.90625 102.6875 239.90625 102.539062 L 239.90625 102.136719 C 240.15625 102.089844 240.40625 102.023438 240.644531 101.9375 C 242.3125 101.320312 243.140625 99.828125 242.613281 98.390625 C 242.027344 96.808594 240.441406 96.417969 239.164062 96.101562 C 238.371094 95.90625 237.550781 95.703125 237.261719 95.289062 C 237.082031 95.070312 237.070312 94.839844 237.230469 94.605469 C 237.550781 94.183594 238.460938 93.988281 239.398438 94.140625 C 239.636719 94.179688 239.867188 94.261719 240.078125 94.378906 C 240.207031 94.453125 240.347656 94.496094 240.496094 94.515625 C 240.644531 94.53125 240.792969 94.519531 240.933594 94.480469 C 241.078125 94.4375 241.210938 94.371094 241.328125 94.28125 C 241.445312 94.1875 241.539062 94.078125 241.613281 93.945312 C 241.683594 93.816406 241.730469 93.679688 241.746094 93.53125 C 241.765625 93.382812 241.753906 93.238281 241.714844 93.09375 C 241.671875 92.953125 241.605469 92.820312 241.511719 92.707031 C 241.421875 92.589844 241.308594 92.492188 241.179688 92.421875 C 240.777344 92.199219 240.355469 92.046875 239.90625 91.953125 L 239.90625 91.320312 C 239.90625 91.171875 239.878906 91.03125 239.820312 90.890625 C 239.761719 90.753906 239.679688 90.632812 239.574219 90.527344 C 239.46875 90.421875 239.347656 90.34375 239.210938 90.285156 C 239.070312 90.226562 238.925781 90.199219 238.777344 90.199219 C 238.628906 90.199219 238.484375 90.226562 238.34375 90.285156 C 238.207031 90.34375 238.085938 90.421875 237.980469 90.527344 C 237.875 90.632812 237.792969 90.753906 237.734375 90.890625 C 237.679688 91.03125 237.648438 91.171875 237.648438 91.320312 L 237.648438 91.960938 C 236.742188 92.113281 236.003906 92.542969 235.429688 93.257812 C 235.25 93.496094 235.113281 93.757812 235.019531 94.039062 C 234.925781 94.324219 234.878906 94.613281 234.875 94.914062 C 234.875 95.210938 234.917969 95.5 235.011719 95.785156 C 235.101562 96.070312 235.234375 96.332031 235.410156 96.574219 C 236.1875 97.679688 237.480469 98 238.621094 98.28125 Z M 238.621094 98.28125 " fill-opacity="1" fill-rule="nonzero"/><g clip-path="url(#73dd2d09eb)"><path fill="#000000" d="M 193.648438 132.816406 C 193.824219 132.375 193.773438 131.871094 193.503906 131.476562 C 193.234375 131.082031 192.789062 130.84375 192.3125 130.84375 L 109.035156 130.84375 C 108.554688 130.84375 108.109375 131.082031 107.84375 131.476562 C 107.574219 131.871094 107.523438 132.375 107.699219 132.816406 L 119.597656 162.558594 C 119.8125 163.105469 120.34375 163.464844 120.933594 163.464844 L 180.414062 163.464844 C 181.003906 163.464844 181.53125 163.105469 181.75 162.558594 Z M 111.160156 133.722656 L 121.90625 160.585938 L 179.4375 160.585938 L 190.183594 133.722656 Z M 111.160156 133.722656 " fill-opacity="1" fill-rule="evenodd"/></g><path fill="#000000" d="M 159.238281 144.648438 C 159.394531 144.207031 159.320312 143.722656 159.050781 143.34375 C 158.78125 142.964844 158.347656 142.738281 157.878906 142.738281 L 143.46875 142.738281 C 143 142.738281 142.566406 142.964844 142.296875 143.34375 C 142.023438 143.722656 141.953125 144.207031 142.109375 144.648438 L 144.164062 150.597656 C 144.363281 151.175781 144.914062 151.566406 145.523438 151.566406 L 155.820312 151.566406 C 156.433594 151.566406 156.980469 151.175781 157.179688 150.597656 Z M 145.488281 145.617188 L 146.550781 148.6875 L 154.796875 148.6875 L 155.859375 145.617188 Z M 145.488281 145.617188 " fill-opacity="1" fill-rule="evenodd"/><path fill="#000000" d="M 181.855469 132.277344 C 181.855469 119.988281 171.890625 110.023438 159.601562 110.023438 C 153.8125 110.023438 147.53125 110.023438 141.746094 110.023438 C 129.457031 110.023438 119.492188 119.988281 119.492188 132.277344 C 119.492188 132.28125 119.492188 132.28125 119.492188 132.28125 C 119.492188 133.078125 120.136719 133.722656 120.933594 133.722656 L 180.414062 133.722656 C 181.207031 133.722656 181.855469 133.078125 181.855469 132.28125 Z M 178.925781 130.84375 C 178.191406 120.8125 169.820312 112.902344 159.601562 112.902344 C 153.8125 112.902344 147.53125 112.902344 141.746094 112.902344 C 131.527344 112.902344 123.15625 120.8125 122.421875 130.84375 Z M 178.925781 130.84375 " fill-opacity="1" fill-rule="evenodd"/><g clip-path="url(#3abf560d83)"><path fill="#000000" d="M 150.671875 77.308594 C 140.851562 77.308594 132.875 85.28125 132.875 95.105469 C 132.875 104.929688 140.851562 112.902344 150.671875 112.902344 C 160.496094 112.902344 168.46875 104.929688 168.46875 95.105469 C 168.46875 85.28125 160.496094 77.308594 150.671875 77.308594 Z M 150.671875 80.1875 C 158.910156 80.1875 165.589844 86.871094 165.589844 95.105469 C 165.589844 103.339844 158.910156 110.023438 150.671875 110.023438 C 142.4375 110.023438 135.753906 103.339844 135.753906 95.105469 C 135.753906 86.871094 142.4375 80.1875 150.671875 80.1875 Z M 150.671875 80.1875 " fill-opacity="1" fill-rule="evenodd"/></g></svg>